<svg width="522" height="522" viewBox="0 0 522 522" fill="none" xmlns="http://www.w3.org/2000/svg">
<g filter="url(#filter0_d_129_23)">
<rect x="11" y="8" width="500" height="500" rx="22" fill="#4589C8"/>
</g>
<path d="M122.344 74.858L140.245 191.988L199.252 74.858H239.474L157.041 230H109.747L82.122 74.858H122.344ZM205.44 284.858L200.357 314.693H159.03L136.93 440H99.139L121.239 314.693H80.133L85.437 284.858H205.44ZM337.558 325.08C335.938 334.215 332.181 341.802 326.287 347.843C320.394 353.884 313.322 358.083 305.071 360.44C312.438 362.061 318.258 365.67 322.53 371.269C326.803 376.868 328.939 383.424 328.939 390.938C328.939 393.295 328.718 395.579 328.276 397.789C326.066 410.754 319.731 421.068 309.27 428.729C298.81 436.243 285.476 440 269.269 440H197.002L224.406 284.858H294.242C308.239 284.858 319.068 287.731 326.729 293.477C334.391 299.223 338.221 307.179 338.221 317.345C338.221 319.85 338 322.428 337.558 325.08ZM275.678 347.843C282.014 347.843 287.097 346.443 290.927 343.644C294.758 340.845 297.115 336.793 297.999 331.489C298.147 330.605 298.22 329.426 298.22 327.953C298.22 323.68 296.821 320.439 294.021 318.229C291.222 315.872 287.097 314.693 281.645 314.693H256.893L251.147 347.843H275.678ZM290.706 392.706C291.001 390.938 291.148 389.612 291.148 388.728C291.148 384.455 289.601 381.14 286.507 378.783C283.413 376.278 279.141 375.026 273.689 375.026H246.285L240.097 409.944H267.943C274.426 409.944 279.583 408.471 283.413 405.524C287.244 402.577 289.675 398.305 290.706 392.706Z" fill="white"/>
<defs>
<filter id="filter0_d_129_23" x="0.6" y="0.6" width="520.8" height="520.8" filterUnits="userSpaceOnUse" color-interpolation-filters="sRGB">
<feFlood flood-opacity="0" result="BackgroundImageFix"/>
<feColorMatrix in="SourceAlpha" type="matrix" values="0 0 0 0 0 0 0 0 0 0 0 0 0 0 0 0 0 0 127 0" result="hardAlpha"/>
<feOffset dy="3"/>
<feGaussianBlur stdDeviation="5.2"/>
<feComposite in2="hardAlpha" operator="out"/>
<feColorMatrix type="matrix" values="0 0 0 0 0 0 0 0 0 0 0 0 0 0 0 0 0 0 0.25 0"/>
<feBlend mode="normal" in2="BackgroundImageFix" result="effect1_dropShadow_129_23"/>
<feBlend mode="normal" in="SourceGraphic" in2="effect1_dropShadow_129_23" result="shape"/>
</filter>
</defs>
</svg>
